<?xml version="1.0" encoding="utf-8"?>
<svg version="1.0" width="232.000000pt" height="257.000000pt" viewBox="0 0 172.374 163.946" preserveAspectRatio="xMidYMid meet" xmlns="http://www.w3.org/2000/svg">
  <g transform="matrix(0.1, 0, 0, -0.1, -26.651152, 220.411133)" fill="#000000" stroke="none">
    <path d="M 529.829 2037.137 C 518.829 2032.137 500.829 2018.137 489.829 2006.137 C 470.829 1985.137 469.829 1966.137 464.829 1527.137 L 458.829 1071.137 L 401.829 926.137 C 369.829 846.137 342.829 767.137 342.829 750.137 C 340.829 711.137 367.829 668.137 401.829 655.137 C 417.829 649.137 691.829 647.137 1131.829 648.137 L 1810.204 651.137 C 1811.795 643.184 1866.524 672.298 1864.435 682.743 C 1890.618 736.56 1891.829 763.137 1827.829 926.137 L 1770.829 1071.137 L 1764.829 1528.137 L 1759.829 1986.137 L 1742.646 2020.349 L 1704.829 2041.137 L 1126.829 2043.137 C 809.829 2044.137 540.829 2041.137 529.829 2037.137 Z M 1652.829 1934.137 C 1661.829 1925.137 1664.829 1828.137 1664.829 1559.137 L 1664.829 1196.137 L 1114.829 1196.137 L 564.829 1196.137 L 564.829 1559.137 C 564.829 1828.137 567.829 1925.137 576.829 1934.137 C 593.829 1951.137 1635.829 1951.137 1652.829 1934.137 Z"/>
  </g>
</svg>