<?xml version="1.0" encoding="utf-8"?>
<svg version="1.0" width="170.000000pt" height="171.000000pt" viewBox="0 0 169.841 166.197" preserveAspectRatio="xMidYMid meet" xmlns="http://www.w3.org/2000/svg" xmlns:bx="https://boxy-svg.com">
  <defs>
    <bx:grid x="3.691" y="-0.299" width="83.075" height="114.889"/>
  </defs>
  <g transform="translate(0.000000,171.000000) scale(0.100000,-0.100000)" fill="#000000" stroke="none">
    <path d="M 429.91 1411.992 L 36.91 1151.992 L 36.91 674.992 C 36.91 149.992 38.1 164.44 95.896 109.992 C 133.892 74.198 140.812 86.668 344.812 83.668 C 344.33 82.411 565.288 83.298 565.342 83.352 L 566.91 347.992 L 566.91 613.992 L 836.91 613.992 L 1106.91 613.992 L 1106.91 347.992 L 1106.91 82.992 L 1325.91 83.352 C 1676.91 83.352 1634.511 40.593 1636.91 674.992 L 1636.91 1151.992 L 1240.91 1412.992 C 1023.91 1555.992 839.91 1673.992 833.91 1672.992 C 826.91 1672.992 644.91 1554.992 429.91 1411.992 Z"/>
  </g>
</svg>